<svg width="100" height="100" viewBox="0 0 100 100" fill="none" xmlns="http://www.w3.org/2000/svg">
<g clip-path="url(#clip0_792_2)">
<rect width="100" height="100" rx="10" fill="#FCDC00"/>
<path d="M75.2363 90.2869C72.2657 90.2869 69.6038 89.8047 67.2506 88.8402C64.8973 87.8758 63.0069 86.4484 61.5796 84.558C60.1907 82.6677 59.4577 80.3916 59.3806 77.7297H69.9125C70.0668 79.2342 70.5876 80.3916 71.4749 81.2017C72.3622 81.9733 73.5195 82.3591 74.9469 82.3591C76.4129 82.3591 77.5703 82.0311 78.419 81.3753C79.2677 80.6809 79.6921 79.7357 79.6921 78.5398C79.6921 77.5368 79.3449 76.7073 78.6505 76.0515C77.9946 75.3957 77.1652 74.8556 76.1622 74.4312C75.1977 74.0069 73.8089 73.5246 71.9957 72.9845C69.3724 72.1744 67.2313 71.3642 65.5724 70.5541C63.9135 69.7439 62.4861 68.548 61.2902 66.9663C60.0943 65.3846 59.4963 63.3207 59.4963 60.7745C59.4963 56.9938 60.8659 54.0426 63.6049 51.9208C66.344 49.7604 69.9125 48.6802 74.3104 48.6802C78.7855 48.6802 82.3926 49.7604 85.1316 51.9208C87.8707 54.0426 89.3367 57.0131 89.5296 60.8324H78.8241C78.7469 59.5207 78.2647 58.4984 77.3774 57.7654C76.4901 56.9938 75.352 56.608 73.9632 56.608C72.7673 56.608 71.8028 56.9359 71.0698 57.5918C70.3368 58.209 69.9703 59.1156 69.9703 60.3115C69.9703 61.6232 70.5876 62.6455 71.8221 63.3785C73.0566 64.1115 74.9855 64.9024 77.6089 65.7511C80.2322 66.6384 82.354 67.4871 83.9743 68.2973C85.6331 69.1074 87.0605 70.284 88.2565 71.8272C89.4524 73.3703 90.0504 75.3571 90.0504 77.7875C90.0504 80.1022 89.4524 82.2048 88.2565 84.0951C87.0991 85.9854 85.4017 87.49 83.1641 88.6088C80.9266 89.7275 78.284 90.2869 75.2363 90.2869Z" fill="black"/>
<path d="M52.5449 49.2588V76.9195C52.5449 81.2017 51.3297 84.5001 48.8993 86.8148C46.5074 89.1295 43.2668 90.2869 39.1775 90.2869C34.8953 90.2869 31.4619 89.0716 28.8771 86.6412C26.2924 84.2108 25 80.758 25 76.2829H34.8375C34.8375 77.9804 35.1847 79.2727 35.8791 80.16C36.5735 81.0088 37.5765 81.4331 38.8882 81.4331C40.0841 81.4331 41.01 81.0473 41.6658 80.2758C42.3217 79.5042 42.6496 78.3854 42.6496 76.9195V49.2588H52.5449Z" fill="black"/>
</g>
<defs>
<clipPath id="clip0_792_2">
<rect width="100" height="100" fill="white"/>
</clipPath>
</defs>
</svg>
