<svg width="86" height="86" viewBox="0 0 86 86" fill="none" xmlns="http://www.w3.org/2000/svg">
<path d="M71.1371 10.4829C63.5958 3.95169 53.7594 0 43 0C32.2546 0 22.4299 3.94138 14.8924 10.4573C19.1372 21.8697 30.1289 30 43.0195 30C55.9005 30 66.8855 21.8819 71.1371 10.4829Z" fill="#034752"/>
<path d="M10.4822 71.1364C21.8816 66.8849 30 55.8998 30 43.0186C30 30.1282 21.87 19.1366 10.458 14.8917C3.94164 22.4292 0 32.2543 0 43C0 53.759 3.95144 63.5952 10.4822 71.1364Z" fill="#034752"/>
<path d="M71.1223 75.5299C66.8742 64.1242 55.8858 56 43 56C30.1142 56 19.1258 64.1242 14.8777 75.5299C22.417 82.0535 32.2476 86 43 86C53.7524 86 63.583 82.0535 71.1223 75.5299Z" fill="#034752"/>
<path d="M75.5299 14.8777C64.1242 19.1258 56 30.1142 56 43C56 55.8858 64.1242 66.8742 75.5299 71.1223C82.0535 63.583 86 53.7524 86 43C86 32.2476 82.0535 22.417 75.5299 14.8777Z" fill="#034752"/>
</svg>
